<svg width="48" height="48" viewBox="0 0 48 48" fill="none" xmlns="http://www.w3.org/2000/svg">
<path d="M15.5202 16.604C15.2754 16.6613 15.4316 16.6509 15.2285 16.6769C14.3587 16.8644 15.0046 17.0311 15.5202 16.604ZM30.8171 16.953C30.8796 16.9113 31.0983 16.6978 30.416 16.4894C30.4577 16.703 30.2754 16.6821 30.2754 16.8019C30.7806 17.2603 30.9889 18.0571 31.6348 18.2238C31.7598 17.6509 31.0618 17.3696 30.8171 16.953ZM15.0566 16.4373C15.1348 16.9009 15.4837 15.9478 15.4889 15.6092C15.3535 15.6873 15.2181 15.7655 15.0775 15.828C15.4056 15.9946 15.1191 16.1717 14.765 16.4373C14.0462 17.3332 15.4368 15.7394 15.0566 16.4373ZM23.9681 10.6353C16.6035 10.6353 10.6348 16.604 10.6348 23.9686C10.6348 31.328 16.6035 37.3019 23.9681 37.3019C31.3327 37.3019 37.3014 31.328 37.3014 23.9686C37.3014 16.604 31.3327 10.6353 23.9681 10.6353ZM24.3223 15.104L24.3848 15.1248C24.1348 15.4478 25.6869 16.3905 24.5723 16.4686C23.5306 16.7655 25.0098 16.1978 24.2025 16.2967C24.6296 15.703 23.8639 15.6925 24.3223 15.104ZM17.9993 15.9582C17.6243 15.6457 16.4473 16.3853 16.8587 16.2082C17.8796 15.8071 16.9264 16.2498 17.166 16.729C16.9473 17.1821 17.0931 16.2811 16.5514 16.8175C16.1608 16.9061 15.2025 17.7915 15.3223 17.5207C15.291 17.9425 14.1816 18.4425 14.0306 19.1457C13.666 20.1196 13.9421 19.1092 13.8743 18.729C13.3535 18.0675 12.4056 19.8488 12.6868 20.5519C13.1608 19.7186 13.1243 20.4634 12.7806 20.8332C13.1296 21.4738 12.4629 22.3071 13.1243 22.7811C13.416 22.8488 13.9993 21.8019 13.7441 22.8905C13.9212 21.9478 14.2337 23.1144 14.7389 22.854C14.7702 23.3488 15.0775 23.1196 15.1452 23.7186C15.9889 23.6561 16.7598 25.0832 15.7546 25.354C15.9056 25.3123 16.2025 25.578 16.5462 25.3748C17.1296 25.8384 18.666 25.8957 18.7077 27.0415C17.6504 27.5467 18.4473 28.9321 17.5306 29.4269C16.4785 29.2707 17.1712 30.7238 16.7285 30.5571C16.9056 31.604 15.666 30.4217 16.1452 30.9998C17.0254 31.5415 15.7598 31.4321 16.1556 31.828C15.7129 31.7342 16.4316 32.6509 16.5514 32.9894C17.1868 34.0207 16.0046 32.7603 15.6556 32.4165C15.3223 31.7498 14.5358 30.4738 14.3171 29.4269C14.1921 27.9061 13.015 26.8853 12.7441 25.4009C12.4733 24.5728 13.4889 23.2446 12.9421 22.7811C12.4681 22.4113 12.6608 21.1457 12.3796 20.479C13.0827 17.4321 15.3171 14.8644 17.9993 13.3436C17.7233 13.5467 19.5775 12.8175 19.3639 12.9946C19.3066 13.1248 20.4473 12.4998 21.1348 12.4061C21.0619 12.4165 19.3483 13.0311 19.8223 12.9478C19.0879 13.3071 19.7493 13.104 20.1139 12.9217C19.3848 13.4582 18.8223 13.3071 17.9941 13.7811C17.1608 13.9998 17.3327 14.8644 16.7389 15.2967C17.0879 15.3592 17.9629 14.3957 18.4733 14.0571C19.6452 13.4894 17.8796 15.0884 18.9941 14.4009C18.6191 14.7498 18.6973 15.3071 18.4681 15.4634C18.3535 15.4321 18.9212 15.7342 17.9993 15.9582ZM19.8223 13.5623C19.7025 13.7238 19.5358 14.0728 19.4368 13.8592C19.3014 13.9269 19.2493 14.2186 18.9941 13.9842C19.1452 13.8748 19.3014 13.6144 19.0046 13.7759C19.14 13.63 20.3483 13.2186 20.2806 13.0623C20.4941 12.9269 20.4733 12.8592 20.2285 12.9425C20.1035 12.9009 20.5254 12.5467 21.0879 12.4998C21.166 12.4998 21.1973 12.5519 21.0566 12.5363C20.2077 12.7967 20.5723 12.7238 21.1452 12.5363C20.9264 12.6613 20.7754 12.6978 20.7389 12.755C21.3118 12.5467 20.7077 12.9061 20.8379 12.88C20.6764 12.9634 20.8639 12.9894 20.5514 13.1092C20.6087 13.0623 20.041 13.4478 20.3796 13.3332C20.0514 13.6457 19.9056 13.6509 19.8223 13.5623ZM20.3223 14.3071C20.3327 13.8071 21.0514 13.4894 20.9629 13.4634C21.8483 13.0467 20.6556 13.479 21.3535 13.104C21.6139 13.078 22.166 12.2446 22.9316 12.1925C23.7754 11.9373 23.3848 12.2082 24.0098 11.9686L23.8848 12.0728C23.7754 12.0884 23.9108 12.2811 23.515 12.5728C23.4733 13.0259 22.7598 12.8175 23.1139 13.3019C22.8848 12.9738 22.541 13.2915 22.9733 13.3228C22.5098 13.6769 21.4316 13.7394 20.916 14.328C20.5827 14.8071 20.2754 14.6561 20.3223 14.3071ZM24.0254 15.9738C23.6712 16.828 23.3275 15.8488 23.9525 15.6925C24.1087 15.7759 24.1712 15.8019 24.0254 15.9738ZM22.6921 14.2655C22.5879 13.88 22.6712 14.0832 23.291 13.9009C23.7181 14.2082 22.9108 14.4113 22.6921 14.2655ZM34.2337 19.9113C33.7025 19.953 33.2233 20.078 32.7441 19.7759C31.64 18.5675 32.9473 21.1405 33.3118 20.0884C34.6243 20.5884 33.5723 22.3835 32.7441 22.1596C32.2806 21.1596 30.9125 18.9686 30.416 19.9321C30.1364 19.9113 31.5775 21.8488 32.4108 22.6248C32.857 23.413 33.5671 22.229 33.4993 23.0675C33.6035 24.5103 32.1712 26.8228 32.1712 26.8228L31.14 29.5623C30.3796 30.4113 29.5671 31.5571 28.2025 31.3748C28.2025 30.6561 27.8379 30.0467 27.7546 29.3071C27.015 28.3696 28.5358 27.3644 27.5931 26.3853C26.5046 26.1405 27.8171 24.6405 26.6973 24.7811C26.0254 24.1092 25.041 24.7603 24.0775 24.7655C22.8691 24.88 21.6243 23.2811 22.1608 22.1509C21.7337 20.9738 23.515 20.63 23.5618 19.5936C24.416 18.88 25.6296 18.9686 26.7858 18.8019C26.7025 19.63 27.5775 19.6353 28.2389 19.9113C28.6087 19.0155 29.7598 20.0571 30.5462 19.4894C30.8171 18.1665 29.7806 18.9634 29.1869 18.5415C28.4681 17.4894 30.7233 17.9998 30.4889 17.4478C29.6139 17.4425 30.1087 16.3696 29.4889 16.9686C30.0462 17.0675 29.39 17.505 29.4056 17.005C28.5618 16.7603 29.3744 17.9634 28.9473 18.078C28.2962 17.8071 28.6035 18.3853 28.6712 18.4738C28.39 19.0832 28.0462 17.578 27.2493 17.6196C26.4577 16.8957 26.9368 17.9478 27.6243 18.1196C27.4785 18.1613 27.7077 18.7603 27.5254 18.505C26.9577 17.7238 25.8796 17.203 25.2389 18.1613C25.1712 19.0571 23.3483 19.3123 23.64 18.2655C23.2129 17.1821 24.9629 18.2342 24.8014 17.3696C23.6764 16.6248 25.1087 16.8644 25.4889 16.1665C26.3535 16.1925 25.5254 15.4582 25.9316 15.2446C25.89 16.0415 26.5931 15.8905 27.1504 15.7394C27.015 15.2811 27.4837 15.2967 27.1973 14.9165C28.4889 14.4009 26.2129 15.1561 26.6712 14.0259C26.1139 13.6405 26.4368 14.8748 26.6712 15.005C26.6868 15.3853 26.3639 15.854 25.9212 15.0571C25.2754 15.479 25.3431 14.63 25.3014 14.7186C25.2285 14.3905 25.791 14.3748 25.7962 13.8019C25.7494 13.4373 25.7598 13.2446 26.0202 13.2238C26.041 13.2759 27.0879 13.2915 27.4577 13.7238C26.4473 13.5207 27.3066 13.8905 27.7598 14.0988C27.2754 13.7186 27.9525 14.0988 27.5566 13.6665C27.7129 13.6978 27.1243 13.0728 27.7285 13.6196C27.4004 13.229 28.3691 13.3436 27.7962 13.0519C28.6348 13.2863 28.14 13.0728 27.6452 12.8592C26.2806 12.0467 30.0566 13.9582 28.515 13.1092C29.4993 13.3228 26.4108 12.3488 27.8171 12.7759C27.2806 12.5415 27.8014 12.6717 28.2858 12.8228C27.416 12.5519 26.1139 12.0467 26.166 12.0259C26.4681 12.0467 26.765 12.1144 27.0514 12.1978C27.9421 12.4634 26.7962 12.1353 27.041 12.1405C30.1035 12.9269 32.7858 14.979 34.416 17.6613C34.7962 18.0623 35.8327 20.7134 35.291 19.5363C35.5358 20.4738 35.5723 21.4842 35.7025 22.4425C35.4316 22.1405 35.1296 21.0259 34.8691 20.4061C34.7598 20.6457 34.6348 20.0675 34.2337 19.9113Z" fill="white"/>
<path d="M6.59878 9.72752C5.78825 10.6014 4.6358 12.3997 3.8506 14.0081C1.57101 18.6813 0.950454 23.709 2.03959 28.7495C2.49551 30.9024 3.55932 33.6126 4.62313 35.3729L5.09171 36.1328V36.1552L6.25644 37.7538L6.85206 38.4884L7.44729 39.2102L8.78972 40.5527L10.2252 41.7261L12.627 43.3768C14.3874 44.4406 17.0976 45.5044 19.2505 45.973C25.1775 47.2395 31.5476 46.0364 36.5374 42.693C38.7917 41.1986 39.2476 40.54 38.5511 39.8435C38.1205 39.4002 37.7279 39.4509 36.9933 40.0334C30.6485 45.0485 21.9987 45.9984 14.9446 42.4397C8.96702 39.4382 4.92708 34.0558 3.69863 27.4577C3.35669 25.634 3.39468 22.0247 3.76195 20.163C4.38251 17.0602 5.76293 13.9321 7.53594 11.5892C8.35913 10.5127 8.47311 10.2848 8.42245 9.95547C8.37179 9.74018 8.21982 9.47424 8.08051 9.34759C7.61193 8.96766 7.21933 9.06897 6.59878 9.72752Z" fill="white"/>
<path d="M41.5848 38.066C42.3953 37.1923 43.5478 35.3942 44.333 33.7861C46.6126 29.1136 47.2331 24.0865 46.144 19.0468C45.6881 16.8942 44.6243 14.1844 43.5605 12.4243L43.0919 11.6645V11.6421L41.9272 10.0437L41.3315 9.3093L40.7363 8.58753L39.3939 7.2453L37.9584 6.072L35.5566 4.42155C33.7962 3.3579 31.086 2.29424 28.9331 1.82573C23.0061 0.559471 16.636 1.76241 11.6462 5.10533C9.39191 6.59951 8.936 7.25796 9.63254 7.9544C10.0631 8.39759 10.4557 8.34694 11.1903 7.76447C17.5351 2.75009 26.1849 1.8004 33.239 5.35858C39.2166 8.35961 43.2565 13.7412 44.485 20.3384C44.8269 22.1618 44.7889 25.7706 44.4216 27.632C43.8011 30.7344 42.4207 33.862 40.6477 36.2046C39.8245 37.2809 39.7105 37.5089 39.7611 37.8381C39.8118 38.0534 39.9638 38.3193 40.1031 38.4459C40.5717 38.8258 40.9643 38.7245 41.5848 38.066Z" fill="white"/>
</svg>
